<svg xmlns="http://www.w3.org/2000/svg" width="49.537" height="52.71" viewBox="0 0 13.107 13.946"><defs><clipPath id="a"><path d="M0 0h228.784v52.71H0z" style="fill:#fff" transform="translate(.245 .724)"/></clipPath></defs><g clip-path="url(#a)" style="fill:none" transform="matrix(.26458 0 0 .26458 -.065 -.192)"><path d="M46.373 27.078c0 7.635-4.394 14.246-10.805 17.473-.083-2.885-.169-5.522-.262-6.715-.144-1.845.448-3.351 1.909-4.515 1.425-1.132 2.161-2.92 1.874-4.71-.544-3.4-1.182-6.783-1.787-10.173-.073-.416-.322-.664-.764-.607-.352.045-.471.522-.47.799.017 1.78.1 3.562.164 5.342.044 1.296.1 2.595.13 3.892.014.706-.306 1.103-.843 1.117-.563.016-.906-.393-.933-1.117-.003-.024 0-.046-.003-.067-.062-2.357-.16-6.758-.23-9.29a.778.778 0 0 0-.338-.624l-.004-.002a.487.487 0 0 0-.555-.005.781.781 0 0 0-.332.618c-.061 2.202-.12 5.075-.18 7.237-.024.791-.034 1.583-.084 2.373-.034.527-.329.883-.884.872-.548-.01-.842-.352-.858-.895-.013-.374.005-.749.018-1.122.092-2.748.186-5.497.281-8.243.017-.42-.005-.847-.529-.907-.502-.058-.675.323-.764.741-.224 1.055-.483 2.104-.659 3.165-.4 2.407-.777 4.816-1.128 7.23-.15 1.034.065 2.045.649 2.905.415.612.958 1.146 1.504 1.652 1.11 1.034 1.778 2.268 1.691 3.79-.107 1.817-.225 5.242-.348 8.683a19.81 19.81 0 0 1-5.145.677c-1.68 0-3.31-.208-4.865-.603-.118-3.346-.234-6.644-.35-8.398-.085-1.293.448-2.359 1.298-3.279 1.115-1.202 2.222-2.413 2.664-4.038.973-3.575.539-6.99-1.368-10.168-1.198-1.999-3.359-2.825-5.354-2.132-1.603.557-2.612 1.793-3.276 3.279-1.198 2.687-1.527 5.492-.901 8.384.316 1.455 1.038 2.692 2.05 3.783.51.547 1 1.12 1.426 1.73.515.741.74 1.594.68 2.503-.087 1.351-.179 4.135-.272 7.13-6.742-3.103-11.416-9.892-11.416-17.765 0-10.81 8.813-19.574 19.686-19.574 10.874 0 19.687 8.763 19.687 19.574z" style="fill:#020202"/><path d="M49.15 38.685c-.62-.326-1.396-.157-1.762.459a25.923 25.923 0 0 1-1.516 2.268l-.203.26a27.26 27.26 0 0 1-2.024 2.267 25.516 25.516 0 0 1-2.237 1.967 24.898 24.898 0 0 1-5.005 2.965l-.192.084-.12.052-.248.101-.39.153a25.42 25.42 0 0 1-2.302.754 25.641 25.641 0 0 1-3.18.657l-.206.025a24.036 24.036 0 0 1-1.302.12 25.663 25.663 0 0 1-4.848-.133c-.13-.012-.259-.036-.387-.056a25.759 25.759 0 0 1-2.198-.437 25.14 25.14 0 0 1-3.591-1.174c-.003 0-.003-.001-.005-.002-.116-.05-.233-.1-.348-.152a25.176 25.176 0 0 1-3.793-2.101c-.399-.269-.783-.558-1.173-.84-.027-.02-.056-.041-.083-.064a24.584 24.584 0 0 1-.867-.714 25.18 25.18 0 0 1-3.34-3.482c-.01-.013-.127-.162-.161-.208a25.096 25.096 0 0 1-2.92-4.977l-.056-.13-.001-.003c-.73-1.836-1.296-3.709-1.607-5.662l-.058-.386v-.009l-.012-.088a25.751 25.751 0 0 1-.18-2.317 25.246 25.246 0 0 1 .163-3.776l.029-.228c.003-.026.007-.051.01-.063.01-.08.023-.161.035-.242a24.57 24.57 0 0 1 1.064-4.297 24.67 24.67 0 0 1 .556-1.46l.002-.004c.045-.1.088-.202.134-.303a25.227 25.227 0 0 1 2.924-4.916l.04-.05.057-.072a25.554 25.554 0 0 1 3.25-3.396c.177-.153.357-.304.538-.453l.255-.205.147-.117a9.294 9.294 0 0 1 .26-.198l.302-.222a25.214 25.214 0 0 1 4.703-2.68 5.83 5.83 0 0 0 .129-.057c-.013.005-.025.011-.042.02.228-.108.472-.192.708-.282a25.1 25.1 0 0 1 5.326-1.38l.15-.021.044-.005a25.82 25.82 0 0 1 6.288.001l.107.015c.537.082 1.073.17 1.605.28a25.137 25.137 0 0 1 4.027 1.199c.136.053.271.108.406.163l.004.001c-.004 0-.005-.002-.01-.003.005.002.009.003.013.006l.08.034.109.046a25.239 25.239 0 0 1 5.044 2.945l.113.085.01.01c.112.09.226.177.337.267.433.35.854.714 1.261 1.092.153.14.301.285.45.429H41.88c-.673 0-1.32.589-1.288 1.28.032.694.567 1.281 1.288 1.281h4.267c.673 0 1.32-.589 1.288-1.28-.001-.036-.01-.068-.014-.104.008-.058.014-.118.014-.178v-5.48c0-.67-.593-1.313-1.288-1.282-.698.032-1.288.564-1.288 1.281v2.27a26.858 26.858 0 0 0-9.304-5.621C31.127.64 26.287.332 21.677 1.203 17.56 1.982 13.7 3.788 10.4 6.34a26.148 26.148 0 0 0-7.54 9.315C1.016 19.504.103 23.762.262 28.028a26.383 26.383 0 0 0 3.429 12.054c2.036 3.568 4.922 6.626 8.34 8.915 3.504 2.346 7.547 3.773 11.733 4.264 4.593.539 9.263-.193 13.507-1.992 4.165-1.766 7.785-4.64 10.543-8.196a26.162 26.162 0 0 0 1.798-2.635c.344-.578.15-1.43-.462-1.753z" style="fill:#020202"/><path d="m36.053 5.13.083.036-.08-.034-.003-.001zM7.792 12.538l-.01.013c.06-.077.076-.096.066-.085a2.067 2.067 0 0 0-.056.071z" style="fill:#020202"/></g></svg>