<?xml version="1.0" encoding="UTF-8" standalone="no"?>
<!-- Created with Inkscape (http://www.inkscape.org/) -->

<svg
   xmlns:dc="http://purl.org/dc/elements/1.1/"
   xmlns:cc="http://creativecommons.org/ns#"
   xmlns:rdf="http://www.w3.org/1999/02/22-rdf-syntax-ns#"
   xmlns:svg="http://www.w3.org/2000/svg"
   xmlns="http://www.w3.org/2000/svg"
   xmlns:sodipodi="http://sodipodi.sourceforge.net/DTD/sodipodi-0.dtd"
   xmlns:inkscape="http://www.inkscape.org/namespaces/inkscape"
   width="13.106585mm"
   height="13.94619mm"
   viewBox="0 0 13.106584 13.94619"
   version="1.1"
   id="svg973"
   inkscape:version="0.92.3 (2405546, 2018-03-11)"
   sodipodi:docname="Icon.svg">
  <defs
     id="defs967">
    <clipPath
       id="clip0_1_1419">
      <rect
         style="fill:#ffffff"
         y="0"
         x="0"
         id="rect833"
         transform="translate(0.24501,0.72406)"
         height="52.7099"
         width="228.784" />
    </clipPath>
  </defs>
  <sodipodi:namedview
     id="base"
     pagecolor="#ffffff"
     bordercolor="#666666"
     borderopacity="1.0"
     inkscape:pageopacity="0.0"
     inkscape:pageshadow="2"
     inkscape:zoom="7.9195959"
     inkscape:cx="39.826478"
     inkscape:cy="21.038774"
     inkscape:document-units="mm"
     inkscape:current-layer="Frame"
     showgrid="false"
     fit-margin-top="0"
     fit-margin-left="0"
     fit-margin-right="0"
     fit-margin-bottom="0"
     inkscape:window-width="2560"
     inkscape:window-height="1377"
     inkscape:window-x="1912"
     inkscape:window-y="-8"
     inkscape:window-maximized="1" />
  <metadata
     id="metadata970">
    <rdf:RDF>
      <cc:Work
         rdf:about="">
        <dc:format>image/svg+xml</dc:format>
        <dc:type
           rdf:resource="http://purl.org/dc/dcmitype/StillImage" />
        <dc:title></dc:title>
      </cc:Work>
    </rdf:RDF>
  </metadata>
  <g
     inkscape:label="Layer 1"
     inkscape:groupmode="layer"
     id="layer1"
     transform="translate(-86.150596,-70.800789)">
    <g
       style="fill:none"
       id="g864"
       transform="matrix(0.26458333,0,0,0.26458333,86.085891,70.609094)">
      <g
         clip-path="url(#clip0_1_1419)"
         id="Frame">
        <g
           id="Group_4">
          <path
             d="m 46.3735,27.0784 c 0,7.6342 -4.3943,14.2459 -10.8053,17.4722 -0.0834,-2.8851 -0.1692,-5.5214 -0.2621,-6.7145 -0.1445,-1.8451 0.4478,-3.3514 1.9086,-4.5153 1.4256,-1.1323 2.1613,-2.919 1.8746,-4.7104 -0.5442,-3.3993 -1.1823,-6.7823 -1.7876,-10.1723 -0.0729,-0.416 -0.322,-0.6637 -0.7639,-0.6076 -0.3514,0.0456 -0.4713,0.5223 -0.4689,0.7993 0.0164,1.7809 0.0999,3.5617 0.1633,5.3426 0.0435,1.2959 0.0999,2.5942 0.1293,3.8913 0.0141,0.7058 -0.3056,1.1031 -0.8426,1.1171 -0.563,0.0164 -0.9062,-0.3926 -0.9332,-1.1171 -0.0023,-0.0234 0,-0.0456 -0.0024,-0.0666 -0.0622,-2.357 -0.161,-6.7578 -0.2303,-9.29 -0.0059,-0.2501 -0.1316,-0.4826 -0.3385,-0.624 L 34.011,17.8807 c -0.1657,-0.1168 -0.3867,-0.1192 -0.5547,-0.0046 -0.2033,0.1437 -0.3267,0.3727 -0.3326,0.6181 -0.0611,2.2016 -0.1199,5.0751 -0.1798,7.2369 -0.0235,0.7911 -0.0341,1.5834 -0.0835,2.3733 -0.0341,0.527 -0.329,0.8823 -0.8849,0.8718 -0.5477,-0.0106 -0.8415,-0.3518 -0.858,-0.8952 -0.0129,-0.3739 0.0059,-0.749 0.0188,-1.1218 0.0917,-2.7484 0.1857,-5.4968 0.2809,-8.2429 0.0165,-0.4207 -0.0047,-0.8472 -0.5288,-0.9068 -0.5019,-0.0585 -0.6758,0.3225 -0.7639,0.7408 -0.2245,1.0552 -0.4831,2.1034 -0.6594,3.1645 -0.3995,2.4072 -0.7768,4.8167 -1.1282,7.2298 -0.1504,1.0342 0.0646,2.045 0.6487,2.905 0.4149,0.6124 0.9579,1.1464 1.5044,1.6524 1.1106,1.0341 1.7781,2.2681 1.6911,3.7908 -0.1069,1.8159 -0.2256,5.2409 -0.3478,8.6823 -1.6407,0.4406 -3.3648,0.6766 -5.1453,0.6766 -1.6806,0 -3.3107,-0.208 -4.8655,-0.603 -0.1175,-3.3455 -0.2339,-6.6432 -0.3491,-8.3972 -0.0858,-1.2936 0.4478,-2.3593 1.2975,-3.279 1.1153,-1.2024 2.2224,-2.413 2.6643,-4.0385 0.9731,-3.5746 0.5383,-6.9903 -1.368,-10.1676 -1.1987,-1.9994 -3.3589,-2.8255 -5.3544,-2.1326 -1.6031,0.5574 -2.6114,1.7937 -3.2754,3.279 -1.1988,2.6877 -1.5279,5.4922 -0.9015,8.3844 0.3162,1.4548 1.0378,2.6923 2.0508,3.7826 0.5089,0.5468 1.0002,1.1194 1.4256,1.7306 0.5148,0.7409 0.7404,1.5939 0.6805,2.503 -0.0882,1.3509 -0.1798,4.1344 -0.2727,7.1305 C 11.6777,41.7403 7.00375,34.951 7.00375,27.0784 7.00375,16.2681 15.817,7.50398 26.6904,7.50398 c 10.8734,0 19.6866,8.76302 19.6866,19.57442 z"
             id="Vector_9"
             inkscape:connector-curvature="0"
             style="fill:#020202" />
          <g
             id="Group_5">
            <path
               d="m 49.1505,38.6847 c -0.6205,-0.326 -1.3962,-0.1566 -1.7628,0.4592 -0.2727,0.4581 -0.5583,0.908 -0.858,1.3474 -0.1445,0.2126 -0.2938,0.423 -0.4442,0.631 -0.0705,0.097 -0.1422,0.194 -0.2139,0.2898 -0.0282,0.0374 -0.1857,0.2372 -0.2022,0.2606 -0.6369,0.7899 -1.3033,1.5507 -2.0249,2.2658 -0.3773,0.3739 -0.7663,0.735 -1.1659,1.0844 -0.181,0.1578 -0.3631,0.3132 -0.5488,0.4651 -0.1058,0.0876 -0.2127,0.1741 -0.3197,0.2594 -0.0446,0.0351 -0.1575,0.1239 -0.2021,0.1589 -0.8309,0.6299 -1.6983,1.2107 -2.6008,1.7354 -0.4478,0.2605 -0.905,0.5071 -1.3692,0.7396 -0.2327,0.1169 -0.4666,0.2291 -0.7028,0.3389 -0.1105,0.0514 -0.221,0.1017 -0.3326,0.1508 -0.0635,0.028 -0.1269,0.0561 -0.1916,0.0841 0,0 -0.067,0.0281 -0.1199,0.0514 -0.0552,0.0222 -0.2138,0.0877 -0.2479,0.1017 -0.1293,0.0514 -0.2598,0.1028 -0.3902,0.1531 -0.2621,0.0993 -0.5242,0.1951 -0.7898,0.2863 -0.4995,0.1717 -1.0036,0.3272 -1.5125,0.4674 -1.0448,0.2874 -2.1073,0.5036 -3.1803,0.6567 -0.0564,0.007 -0.1574,0.021 -0.2056,0.0257 -0.1434,0.0175 -0.288,0.0327 -0.4325,0.0479 -0.2891,0.0292 -0.5794,0.0538 -0.8697,0.0725 -0.5688,0.0374 -1.1388,0.0572 -1.7088,0.0572 -1.0154,0 -2.0308,-0.0596 -3.0392,-0.1799 -0.0294,-0.0035 -0.0646,-0.007 -0.0999,-0.0105 -0.1293,-0.0129 -0.2586,-0.0363 -0.3867,-0.0561 -0.2585,-0.0398 -0.5159,-0.083 -0.7721,-0.1309 -0.4783,-0.0888 -0.9531,-0.1905 -1.4256,-0.3062 -0.9649,-0.2372 -1.9145,-0.5305 -2.8441,-0.8799 -0.208,-0.0783 -0.416,-0.1589 -0.6217,-0.243 -0.0411,-0.0164 -0.0834,-0.0339 -0.1257,-0.0515 -0.0024,0 -0.0024,-0.0011 -0.0048,-0.0023 C 17.3177,48.9645 17.2014,48.9142 17.0862,48.8628 16.6396,48.663 16.1977,48.4503 15.764,48.2259 14.9131,47.7854 14.0881,47.2958 13.2936,46.7617 12.8941,46.493 12.5098,46.2043 12.1196,45.9227 12.0925,45.9017 12.0643,45.8806 12.0373,45.8584 11.9386,45.7813 11.841,45.703 11.7447,45.6247 11.5507,45.467 11.3592,45.3081 11.17,45.1445 10.4484,44.524 9.76319,43.8637 9.1168,43.1661 8.78773,42.812 8.47042,42.4474 8.1625,42.0758 8.04968,41.9391 7.9392,41.8 7.82991,41.6622 7.8205,41.6493 7.70298,41.4997 7.66889,41.4542 7.59368,41.3548 7.51964,41.2543 7.4456,41.1538 6.87325,40.3709 6.34674,39.5541 5.86959,38.7116 5.62984,38.2874 5.40301,37.8574 5.18794,37.4203 5.08334,37.2088 4.98227,36.995 4.88473,36.7799 4.83889,36.6794 4.79423,36.579 4.74957,36.4773 4.73077,36.4341 4.71197,36.3908 4.69316,36.3476 c 0,-0.0012 0,-0.0024 -0.00117,-0.0035 -0.72983,-1.8358 -1.29631,-3.709 -1.60657,-5.6617 -0.01998,-0.1285 -0.03878,-0.257 -0.05876,-0.3868 0,-0.0023 0,-0.0058 0,-0.0081 C 3.02196,30.2536 3.01725,30.215 3.0149,30.1987 2.982,29.9381 2.95379,29.6775 2.93029,29.4169 2.88328,28.9062 2.85154,28.3944 2.83509,27.8814 2.80336,26.8671 2.83156,25.8516 2.92206,24.8408 c 0.02233,-0.2454 0.04701,-0.4896 0.07639,-0.735 0.00353,-0.0292 0.01998,-0.1577 0.02821,-0.2279 0.00352,-0.0257 0.00705,-0.0514 0.0094,-0.0631 0.01175,-0.0806 0.0235,-0.1612 0.03643,-0.2418 0.07404,-0.4803 0.16219,-0.9583 0.26443,-1.4327 0.2092,-0.9699 0.47598,-1.9269 0.79917,-2.8641 0.15514,-0.4499 0.3232,-0.894 0.50419,-1.3345 0.01645,-0.0409 0.03408,-0.0841 0.05171,-0.125 0,-0.0024 0.00117,-0.0024 0.00235,-0.0047 C 4.739,17.7115 4.78248,17.6098 4.82832,17.5093 4.93174,17.2791 5.03868,17.0513 5.14798,16.8246 5.56637,15.9645 6.03412,15.129 6.54771,14.3215 6.80744,13.9137 7.08009,13.5117 7.36333,13.1191 7.50083,12.9298 7.64069,12.7428 7.78172,12.5558 7.77232,12.5675 7.76409,12.578 7.75234,12.5932 7.76527,12.5769 7.77937,12.5593 7.7923,12.543 7.81228,12.5173 7.84048,12.481 7.84871,12.4705 7.93333,12.3654 8.01794,12.259 8.10256,12.155 8.70547,11.42 9.3495,10.7189 10.0311,10.0551 c 0.3467,-0.33652 0.7028,-0.66372 1.0684,-0.98039 0.1762,-0.15308 0.3561,-0.30383 0.537,-0.45224 0.0847,-0.06894 0.1693,-0.13788 0.2551,-0.20566 0.0493,-0.03856 0.0975,-0.07829 0.1469,-0.11686 0.0117,-0.00934 0.0529,-0.04089 0.0881,-0.06777 0.0506,-0.03856 0.1446,-0.10868 0.1728,-0.12971 0.0999,-0.07479 0.2009,-0.14841 0.302,-0.22203 0.2033,-0.14606 0.4078,-0.2898 0.6147,-0.43002 0.389,-0.2641 0.7862,-0.5165 1.1893,-0.75839 0.838,-0.50131 1.7041,-0.95471 2.595,-1.3567 0.1011,-0.04557 0.2021,-0.08997 0.3044,-0.13438 0.0376,-0.01636 0.0881,-0.03973 0.1281,-0.05843 -0.013,0.00585 -0.0247,0.01169 -0.0423,0.01987 0.228,-0.10751 0.4724,-0.19164 0.7086,-0.28162 0.4619,-0.17529 0.9297,-0.33772 1.4021,-0.48612 0.939,-0.29448 1.8945,-0.53403 2.8617,-0.71633 0.2398,-0.04557 0.4807,-0.08764 0.7228,-0.1262 C 23.1987,3.53459 23.3127,3.51706 23.4255,3.5007 23.4748,3.49369 23.5254,3.48551 23.5747,3.47967 23.59,3.4785 23.5994,3.47733 23.6194,3.475 c 0.5089,-0.06311 1.0189,-0.10985 1.5313,-0.14257 1.0918,-0.06777 2.1884,-0.0666 3.2802,0.00468 0.2856,0.01869 0.57,0.04206 0.8544,0.07011 0.1316,0.01285 0.2644,0.02688 0.396,0.04207 0.0752,0.00818 0.1505,0.01753 0.2257,0.02688 0.02,0.00233 0.067,0.00934 0.1069,0.01519 0.5371,0.0818 1.073,0.16944 1.6054,0.28045 1.1212,0.23371 2.2271,0.54455 3.306,0.929 0.2409,0.08647 0.4819,0.17528 0.7204,0.26877 0.1364,0.05375 0.2715,0.10867 0.4067,0.16359 0,0 0.0023,0 0.0035,0.00117 -0.0035,-0.00117 -0.0047,-0.00233 -0.0094,-0.0035 0.0047,0.00233 0.0082,0.0035 0.0129,0.00584 0.0212,0.00935 0.0553,0.02337 0.0788,0.03389 0.0364,0.01519 0.0728,0.03155 0.1093,0.04674 0.5159,0.22553 1.0236,0.46859 1.5231,0.72801 0.9931,0.5165 1.9521,1.09844 2.8664,1.74114 0.221,0.15542 0.4396,0.31318 0.6546,0.47561 0.0376,0.02804 0.0752,0.05725 0.1129,0.0853 0.0047,0.0035 0.0058,0.00467 0.0105,0.00935 0.1117,0.08998 0.2257,0.17762 0.3373,0.2676 0.4325,0.34939 0.8533,0.71398 1.2611,1.09143 0.1528,0.14022 0.3008,0.28512 0.4489,0.42885 h -1.5819 c -0.6734,0 -1.3198,0.589 -1.288,1.2807 0.0317,0.6942 0.5664,1.2808 1.288,1.2808 h 4.2662 c 0.6734,0 1.3198,-0.589 1.2881,-1.2808 -0.0012,-0.035 -0.0094,-0.0677 -0.0141,-0.1028 0.0082,-0.0584 0.0141,-0.118 0.0141,-0.1788 V 5.5632 c 0,-0.66958 -0.5924,-1.31228 -1.2881,-1.28073 -0.6981,0.03155 -1.2881,0.56324 -1.2881,1.28073 V 7.8337 C 42.1872,5.35286 39.0069,3.43293 35.5552,2.21179 31.1269,0.640085 26.2872,0.331587 21.6767,1.20333 17.5598,1.98158 13.7015,3.78817 10.4014,6.34029 7.2176,8.80243 4.59679,12.0323 2.86095,15.6548 1.0158,19.504 0.102634,23.7623 0.262468,28.0275 c 0.158659,4.2208 1.331562,8.3797 3.428202,12.0548 2.03671,3.5676 4.92195,6.6257 8.34073,8.9149 3.5034,2.3453 7.5463,3.7732 11.7325,4.264 4.5929,0.5387 9.2634,-0.1928 13.5072,-1.9924 4.1651,-1.7656 7.7849,-4.6391 10.5432,-8.1962 0.6522,-0.8414 1.2528,-1.7201 1.7981,-2.6351 0.3432,-0.5772 0.1504,-1.4303 -0.4619,-1.7528 z"
               id="Vector_10"
               inkscape:connector-curvature="0"
               style="fill:#020202" />
            <path
               d="m 36.0533,5.12947 c 0.1253,0.05591 0.1206,0.05234 0.0827,0.03687 -0.026,-0.01189 -0.0532,-0.0226 -0.0792,-0.03449 -0.0012,0 -0.0024,-0.00119 -0.0035,-0.00119 z"
               id="Vector_11"
               inkscape:connector-curvature="0"
               style="fill:#020202" />
            <path
               d="m 7.79212,12.5382 c 0,0 -0.00702,0.0094 -0.01053,0.0129 0.06086,-0.0772 0.07607,-0.0959 0.06671,-0.0854 -0.00351,0.0035 -0.00702,0.0082 -0.00936,0.0117 -0.01639,0.0199 -0.03161,0.0398 -0.04682,0.0597 z"
               id="Vector_12"
               inkscape:connector-curvature="0"
               style="fill:#020202" />
          </g>
        </g>
      </g>
    </g>
  </g>
</svg>
