<svg xmlns="http://www.w3.org/2000/svg" width="228.782" height="52.709" viewBox="0 0 60.532 13.946"><defs><clipPath id="a"><path d="M0 0h228.784v52.71H0z" style="fill:#fff" transform="translate(.883 .724)"/></clipPath></defs><g clip-path="url(#a)" style="fill:none" transform="matrix(.26458 0 0 .26458 -.234 -.192)"><path d="M157.348 39.83c-1.84-1.724-2.801-4.23-2.881-7.519v-1.393c.107-3.13 1.088-5.575 2.941-7.34 1.853-1.763 4.341-2.645 7.462-2.645 2.267 0 4.181.458 5.741 1.373 1.56.915 2.733 2.168 3.521 3.76.786 1.59 1.18 3.42 1.18 5.49v.954a.988.988 0 0 1-.28.696.945.945 0 0 1-.72.298h-12.805v.278c.053 1.247.361 2.255.92 3.024.561.77 1.374 1.153 2.441 1.153.667 0 1.215-.14 1.641-.419a5.615 5.615 0 0 0 1.161-1.014c.24-.29.434-.47.581-.537.146-.067.379-.1.699-.1h4.962c.241 0 .447.074.621.219a.721.721 0 0 1 .259.577c0 .69-.393 1.485-1.18 2.386-.787.902-1.927 1.685-3.421 2.348-1.495.663-3.254.994-5.281.994-3.201 0-5.722-.86-7.562-2.586zm10.923-10.265v-.08c0-1.299-.301-2.327-.9-3.083-.601-.756-1.434-1.134-2.501-1.134s-1.861.378-2.461 1.134c-.601.756-.901 1.784-.901 3.084v.08zM57.71 42.117a.952.952 0 0 1-.3-.697V15.561c0-.29.1-.53.3-.716.199-.185.433-.278.7-.278h5.361c.293 0 .54.093.74.278.2.186.301.425.301.716v25.86c0 .291-.1.53-.3.715-.2.186-.447.278-.74.278H58.41c-.267 0-.501-.099-.7-.298zM96.002 34.578V26.94h-3.121c-.294 0-.54-.092-.74-.278a.933.933 0 0 1-.301-.716v-3.223c0-.292.1-.53.3-.716.2-.185.447-.278.74-.278h3.122v-6.565c0-.291.1-.53.3-.715a1 1 0 0 1 .7-.28h4.642c.293 0 .533.094.72.28.186.186.28.424.28.715v6.565h5.002c.293 0 .54.093.74.278.2.186.3.424.3.716v3.223c0 .292-.1.53-.3.716-.2.186-.447.279-.74.279h-5.002v7.081c0 1.963.76 2.944 2.281 2.944h3.081a.98.98 0 0 1 .72.278.968.968 0 0 1 .281.716v3.461a.985.985 0 0 1-.281.697.946.946 0 0 1-.72.298h-3.722c-5.52 0-8.282-2.612-8.282-7.838zM114.708 41.599c-1.16-.544-2.068-1.286-2.721-2.229a5.349 5.349 0 0 1-.98-3.122c0-1.83.753-3.302 2.261-4.416 1.507-1.114 3.581-1.883 6.222-2.308l5.001-.756v-.557c0-1.008-.213-1.75-.64-2.228-.427-.478-1.147-.716-2.16-.716-.614 0-1.12.106-1.521.318a6.65 6.65 0 0 0-1.24.875c-.374.32-.654.53-.84.637-.08.213-.227.318-.441.318h-4.361a.897.897 0 0 1-.661-.258.714.714 0 0 1-.219-.617c.025-.717.379-1.512 1.06-2.388.68-.875 1.72-1.631 3.121-2.268 1.4-.637 3.127-.955 5.182-.955 3.281 0 5.708.724 7.283 2.17 1.573 1.445 2.36 3.388 2.36 5.827V41.02a.988.988 0 0 1-.28.697.946.946 0 0 1-.72.298h-4.642a.96.96 0 0 1-.699-.298.949.949 0 0 1-.301-.697v-1.393c-.586.823-1.406 1.493-2.461 2.01-1.054.517-2.301.775-3.74.775-1.44 0-2.701-.272-3.862-.816zm8.722-4.913c.761-.796 1.14-1.963 1.14-3.5v-.558l-3.401.597c-2.401.424-3.601 1.26-3.601 2.506 0 .663.28 1.188.84 1.572.561.385 1.24.578 2.041.578 1.227 0 2.221-.398 2.98-1.194z" style="fill:#020202"/><path d="M134.901 42.117a.953.953 0 0 1-.301-.697V15.164c0-.291.1-.53.301-.715.2-.186.433-.28.699-.28h4.641a.98.98 0 0 1 .721.28.972.972 0 0 1 .279.715V28.49l5.562-6.087c.052-.052.152-.145.299-.28a1.63 1.63 0 0 1 .461-.297c.16-.065.347-.1.561-.1h5.361c.24 0 .447.087.621.259.173.173.26.377.26.617 0 .292-.107.518-.32.676l-7.202 7.719 8.202 9.906c.212.212.321.41.321.597a.886.886 0 0 1-.922.915h-5.481c-.348 0-.607-.053-.781-.16a3.569 3.569 0 0 1-.62-.517l-6.322-7.558v7.24a.992.992 0 0 1-.279.697.947.947 0 0 1-.721.298H135.6a.957.957 0 0 1-.699-.298zM68.436 42.136c-.186-.184-.28-.424-.28-.716V22.722c0-.292.094-.53.28-.716a.977.977 0 0 1 .72-.278h4.602c.293 0 .54.093.74.278.2.185.3.424.3.716v1.512c.72-.875 1.647-1.578 2.78-2.11 1.135-.53 2.422-.795 3.863-.795 2.347 0 4.254.79 5.72 2.368 1.467 1.578 2.202 3.786 2.202 6.623v11.1a.985.985 0 0 1-.28.697.944.944 0 0 1-.72.297H83.32c-.268 0-.5-.099-.7-.298a.952.952 0 0 1-.3-.696V30.56c0-1.246-.308-2.21-.92-2.884-.614-.677-1.495-1.015-2.641-1.015s-2 .338-2.64 1.014c-.641.677-.961 1.639-.961 2.884V41.42a.99.99 0 0 1-.28.697.946.946 0 0 1-.72.297h-5.002a.977.977 0 0 1-.72-.278zM180.525 42.138a.927.927 0 0 1-.298-.713v-2.813c0-.792.331-1.44.996-1.94l4.251-3.763c2.261-1.8 4.142-3.567 5.391-4.597 1.248-1.029 2.192-1.966 2.829-2.812.637-.845.955-1.65.955-2.417 0-2.086-1.035-3.13-3.107-3.13-1.089 0-1.926.324-2.51.972-.584.647-.97 1.46-1.155 2.436-.159.608-.612.912-1.356.912h-4.98a.816.816 0 0 1-.837-.832 9.106 9.106 0 0 1 1.415-4.655c.89-1.412 2.152-2.535 3.785-3.367 1.634-.832 3.513-1.248 5.638-1.248 2.232 0 4.144.356 5.738 1.069 1.593.713 2.801 1.718 3.625 3.011.823 1.295 1.236 2.8 1.236 4.517 0 1.848-.567 3.541-1.734 5.05-1.326 1.714-2.829 3.056-5.257 5.217l-3.688 3.4h10.24c.292 0 .538.092.737.277.2.186.299.423.299.713v4.001c0 .29-.1.528-.299.713-.2.184-.445.277-.737.277h-20.44c-.292 0-.538-.093-.737-.277zM218.49 42.118a.951.951 0 0 1-.298-.693v-4.477H205.8a.973.973 0 0 1-.717-.277.957.957 0 0 1-.28-.713v-3.764c0-.396.146-.805.439-1.228l11.595-15.608c.371-.449.862-.673 1.474-.673h5.817c.292 0 .531.092.717.277a.964.964 0 0 1 .279.713v15.37h3.505c.319 0 .571.1.757.297.186.2.279.43.279.693v3.922a.96.96 0 0 1-.279.713.974.974 0 0 1-.717.277h-3.545v4.477a.979.979 0 0 1-.279.693.939.939 0 0 1-.717.296h-4.941a.96.96 0 0 1-.697-.296zm-.138-10.795v-9.35l-6.695 9.35zM47.011 27.078c0 7.635-4.394 14.246-10.805 17.473-.084-2.885-.17-5.522-.262-6.715-.145-1.845.447-3.351 1.908-4.515 1.426-1.132 2.162-2.92 1.875-4.71-.544-3.4-1.182-6.783-1.788-10.173-.073-.416-.322-.664-.764-.607-.351.045-.47.522-.468.799.016 1.78.1 3.562.163 5.342.043 1.296.1 2.595.13 3.892.013.706-.306 1.103-.843 1.117-.563.016-.907-.393-.934-1.117-.002-.024 0-.046-.002-.067-.062-2.357-.161-6.758-.23-9.29a.778.778 0 0 0-.339-.624l-.003-.002a.487.487 0 0 0-.555-.005.781.781 0 0 0-.333.618c-.06 2.202-.12 5.075-.18 7.237-.023.791-.034 1.584-.083 2.373-.034.527-.329.883-.885.872-.548-.01-.841-.352-.858-.895-.013-.374.006-.749.019-1.122.092-2.748.186-5.497.28-8.243.017-.42-.004-.847-.528-.906-.502-.059-.676.322-.764.74-.224 1.056-.483 2.104-.66 3.165-.399 2.407-.776 4.817-1.128 7.23-.15 1.034.065 2.045.65 2.905.414.612.957 1.146 1.504 1.652 1.11 1.034 1.778 2.268 1.69 3.79-.106 1.817-.225 5.242-.347 8.683a19.81 19.81 0 0 1-5.145.677c-1.681 0-3.311-.208-4.866-.603-.117-3.346-.234-6.643-.349-8.397-.086-1.294.448-2.36 1.298-3.28 1.115-1.202 2.222-2.412 2.664-4.038.973-3.575.538-6.99-1.368-10.168-1.199-1.999-3.359-2.825-5.355-2.132-1.603.557-2.611 1.794-3.275 3.279-1.199 2.688-1.528 5.492-.901 8.384.316 1.455 1.037 2.693 2.05 3.783.51.547 1 1.12 1.426 1.73.515.741.74 1.594.68 2.503-.088 1.351-.18 4.135-.272 7.13C12.315 41.74 7.64 34.952 7.64 27.079c0-10.81 8.814-19.574 19.687-19.574 10.873 0 19.687 8.763 19.687 19.574z" style="fill:#020202"/><path d="M49.788 38.685c-.62-.326-1.396-.157-1.763.459a25.923 25.923 0 0 1-1.516 2.268c-.028.038-.186.237-.202.26a27.26 27.26 0 0 1-2.025 2.267 25.516 25.516 0 0 1-2.236 1.967c-.831.63-1.699 1.211-2.601 1.736a24.898 24.898 0 0 1-2.405 1.229l-.191.084-.12.052-.248.101-.39.153a25.42 25.42 0 0 1-2.302.754 25.638 25.638 0 0 1-3.181.657l-.206.025c-.143.018-.288.033-.432.048a26.048 26.048 0 0 1-2.579.13 25.663 25.663 0 0 1-3.139-.19c-.129-.013-.258-.037-.386-.057a25.759 25.759 0 0 1-2.198-.437 25.14 25.14 0 0 1-3.592-1.174l-.004-.002a25.867 25.867 0 0 1-1.67-.789c-.851-.44-1.676-.93-2.47-1.464-.4-.269-.785-.558-1.175-.84a19.194 19.194 0 0 1-.375-.298 25.18 25.18 0 0 1-3.915-3.962c-.009-.013-.126-.162-.16-.208-.076-.1-.15-.2-.224-.3a25.096 25.096 0 0 1-2.696-4.677l-.056-.13-.001-.003c-.73-1.836-1.297-3.709-1.607-5.662l-.059-.386v-.009l-.011-.088a25.76 25.76 0 0 1-.18-2.317 25.248 25.248 0 0 1 .163-3.776l.028-.228c.004-.026.007-.052.01-.063l.036-.242a24.57 24.57 0 0 1 1.064-4.297 24.661 24.661 0 0 1 .556-1.46l.002-.004c.045-.1.088-.202.134-.303a25.23 25.23 0 0 1 2.924-4.916l.04-.05.056-.072.254-.316a25.537 25.537 0 0 1 2.997-3.08c.176-.153.356-.304.537-.453l.255-.205.147-.117a9.294 9.294 0 0 1 .261-.198l.302-.222a25.214 25.214 0 0 1 4.703-2.68 5.83 5.83 0 0 0 .128-.057l-.042.02c.228-.108.473-.192.709-.282a25.096 25.096 0 0 1 5.326-1.38l.15-.021.044-.005a25.82 25.82 0 0 1 6.062-.026l.226.027.107.015c.537.082 1.073.17 1.605.28a25.137 25.137 0 0 1 4.026 1.199c.137.053.272.108.407.163l.004.001c-.004 0-.005-.002-.01-.003l.013.006.079.034.11.046a25.239 25.239 0 0 1 5.043 2.945l.113.085.01.01c.112.09.226.177.338.267.432.35.853.714 1.261 1.092.153.14.3.285.449.429h-1.582c-.673 0-1.32.589-1.288 1.28.032.694.566 1.281 1.288 1.281h4.266c.674 0 1.32-.589 1.288-1.28 0-.036-.01-.068-.014-.104.008-.058.014-.118.014-.178v-5.48c0-.67-.592-1.313-1.288-1.282-.698.032-1.288.564-1.288 1.281v2.27a26.857 26.857 0 0 0-9.303-5.621C31.765.64 26.925.332 22.314 1.203c-4.117.779-7.975 2.585-11.275 5.137a26.148 26.148 0 0 0-7.54 9.315C1.653 19.504.74 23.762.9 28.028a26.382 26.382 0 0 0 3.428 12.054c2.037 3.568 4.922 6.626 8.341 8.915 3.503 2.345 7.546 3.773 11.733 4.264 4.592.539 9.263-.193 13.507-1.992 4.165-1.766 7.785-4.64 10.543-8.196a26.162 26.162 0 0 0 1.798-2.635c.343-.578.15-1.43-.462-1.753z" style="fill:#020202"/><path d="m36.69 5.13.084.036-.08-.034-.003-.001zM8.43 12.538l-.01.013.066-.085a.082.082 0 0 0-.01.011l-.046.06z" style="fill:#020202"/></g></svg>