<svg xmlns="http://www.w3.org/2000/svg" width="228.782" height="52.709" viewBox="0 0 60.532 13.946"><defs><clipPath id="a"><path d="M0 0h228.784v52.71H0z" style="fill:#fff" transform="translate(.245 .724)"/></clipPath></defs><g clip-path="url(#a)" style="fill:none" transform="matrix(.26458 0 0 .26458 -.065 -.192)"><path d="M156.71 39.83c-1.84-1.724-2.8-4.23-2.88-7.519v-1.393c.107-3.13 1.087-5.575 2.94-7.34 1.853-1.763 4.342-2.645 7.462-2.645 2.267 0 4.181.458 5.741 1.373 1.561.915 2.734 2.168 3.521 3.76.786 1.59 1.18 3.42 1.18 5.49v.954a.988.988 0 0 1-.28.696.943.943 0 0 1-.72.298h-12.805v.278c.053 1.247.361 2.255.921 3.024.56.77 1.373 1.153 2.441 1.153.666 0 1.214-.14 1.64-.419a5.59 5.59 0 0 0 1.161-1.014c.24-.29.434-.47.581-.537.146-.067.38-.1.699-.1h4.962c.241 0 .447.074.621.219a.721.721 0 0 1 .259.577c0 .69-.393 1.485-1.18 2.386-.787.902-1.927 1.685-3.421 2.348-1.495.663-3.254.994-5.281.994-3.2 0-5.721-.86-7.562-2.586zm10.923-10.265v-.08c0-1.299-.301-2.327-.9-3.083-.601-.756-1.434-1.134-2.501-1.134s-1.861.378-2.461 1.134c-.601.756-.9 1.784-.9 3.084v.08zM57.072 42.117a.952.952 0 0 1-.3-.697V15.561c0-.29.1-.53.3-.716.2-.185.433-.278.7-.278h5.362c.292 0 .54.093.74.278.2.186.3.425.3.716v25.86c0 .291-.1.53-.3.715-.2.186-.447.278-.74.278h-5.362c-.267 0-.5-.099-.7-.298zM95.365 34.578V26.94h-3.122c-.293 0-.54-.092-.74-.278a.933.933 0 0 1-.301-.716v-3.223c0-.292.1-.53.3-.716.2-.185.448-.278.741-.278h3.122v-6.565c0-.291.1-.53.3-.715.2-.186.433-.28.7-.28h4.641c.294 0 .534.094.72.28.186.186.28.424.28.715v6.565h5.002c.294 0 .541.093.74.278.2.186.3.424.3.716v3.223c0 .292-.1.53-.3.716a1.043 1.043 0 0 1-.74.279h-5.002v7.081c0 1.963.761 2.944 2.281 2.944h3.082a.98.98 0 0 1 .719.278.968.968 0 0 1 .281.716v3.461a.985.985 0 0 1-.281.697.946.946 0 0 1-.719.298h-3.722c-5.522 0-8.282-2.612-8.282-7.838zM114.07 41.599c-1.16-.544-2.067-1.286-2.721-2.229a5.356 5.356 0 0 1-.98-3.122c0-1.83.753-3.302 2.261-4.416 1.507-1.114 3.581-1.883 6.222-2.308l5.002-.756v-.557c0-1.008-.214-1.75-.641-2.228-.426-.478-1.147-.716-2.16-.716-.613 0-1.12.106-1.521.318-.4.213-.814.504-1.239.875-.374.32-.655.53-.841.637-.08.213-.227.318-.44.318h-4.362a.895.895 0 0 1-.66-.258.714.714 0 0 1-.22-.617c.026-.717.38-1.512 1.06-2.388.681-.875 1.721-1.631 3.122-2.268 1.399-.637 3.127-.955 5.181-.955 3.281 0 5.708.724 7.283 2.17 1.574 1.445 2.36 3.388 2.36 5.827V41.02a.988.988 0 0 1-.28.697.943.943 0 0 1-.72.298h-4.641a.956.956 0 0 1-.699-.298.949.949 0 0 1-.301-.697v-1.393c-.587.823-1.407 1.493-2.461 2.01-1.054.517-2.301.775-3.741.775s-2.701-.272-3.862-.816zm8.723-4.913c.76-.796 1.14-1.963 1.14-3.5v-.558l-3.402.597c-2.401.424-3.601 1.26-3.601 2.506 0 .663.28 1.188.841 1.572.56.385 1.24.578 2.04.578 1.227 0 2.221-.398 2.98-1.194z" style="fill:#ee672d"/><path d="M134.263 42.117a.953.953 0 0 1-.301-.697V15.164c0-.291.1-.53.301-.715.2-.186.434-.28.699-.28h4.641a.98.98 0 0 1 .721.28.972.972 0 0 1 .279.715V28.49l5.562-6.087c.053-.052.152-.145.299-.28a1.63 1.63 0 0 1 .461-.297c.16-.065.347-.1.561-.1h5.361c.24 0 .447.087.621.259a.838.838 0 0 1 .261.617c0 .292-.107.518-.321.676l-7.202 7.719 8.202 9.906c.213.212.321.41.321.597a.886.886 0 0 1-.922.915h-5.481c-.348 0-.606-.053-.78-.16a3.532 3.532 0 0 1-.621-.517l-6.322-7.558v7.24a.992.992 0 0 1-.279.697.947.947 0 0 1-.721.298h-4.641c-.267 0-.5-.1-.699-.298zM67.799 42.136c-.187-.184-.28-.424-.28-.716V22.722c0-.292.093-.53.28-.716a.977.977 0 0 1 .72-.278h4.601c.293 0 .541.093.74.278.2.185.3.424.3.716v1.512c.72-.875 1.647-1.578 2.781-2.11 1.134-.53 2.421-.795 3.862-.795 2.347 0 4.255.79 5.721 2.368 1.467 1.578 2.201 3.786 2.201 6.623v11.1a.985.985 0 0 1-.28.697.944.944 0 0 1-.72.297h-5.041c-.268 0-.501-.099-.701-.298a.952.952 0 0 1-.3-.696V30.56c0-1.246-.308-2.21-.92-2.884-.613-.677-1.495-1.015-2.64-1.015-1.147 0-2.001.338-2.641 1.014-.641.677-.96 1.639-.96 2.884V41.42a.99.99 0 0 1-.28.697.946.946 0 0 1-.72.297h-5.003a.977.977 0 0 1-.72-.278zM179.888 42.138a.925.925 0 0 1-.299-.713v-2.813c0-.792.332-1.44.997-1.94l4.251-3.763c2.261-1.8 4.141-3.567 5.391-4.597 1.248-1.029 2.191-1.966 2.828-2.812.637-.845.956-1.65.956-2.417 0-2.086-1.036-3.13-3.107-3.13-1.09 0-1.927.324-2.511.972-.584.647-.969 1.46-1.155 2.436-.159.608-.611.912-1.355.912h-4.981a.82.82 0 0 1-.598-.238.806.806 0 0 1-.239-.594 9.115 9.115 0 0 1 1.415-4.655c.89-1.412 2.152-2.535 3.786-3.367 1.633-.832 3.513-1.248 5.638-1.248 2.231 0 4.143.356 5.737 1.069 1.594.713 2.802 1.718 3.626 3.011.822 1.295 1.235 2.8 1.235 4.517 0 1.848-.567 3.541-1.734 5.05-1.325 1.714-2.828 3.056-5.256 5.217l-3.688 3.4h10.24c.291 0 .538.092.736.277.2.186.299.423.299.713v4.001c0 .29-.1.528-.299.713a1.043 1.043 0 0 1-.736.277h-20.44a1.04 1.04 0 0 1-.737-.277zM217.853 42.118a.949.949 0 0 1-.299-.693v-4.477h-12.392a.97.97 0 0 1-.716-.277.957.957 0 0 1-.28-.713v-3.764c0-.396.146-.805.438-1.228l11.595-15.608c.372-.449.863-.673 1.474-.673h5.817c.292 0 .532.092.717.277a.964.964 0 0 1 .279.713v15.37h3.506c.318 0 .571.1.757.297.185.2.278.43.278.693v3.922a.963.963 0 0 1-.278.713.976.976 0 0 1-.717.277h-3.546v4.477a.979.979 0 0 1-.279.693.939.939 0 0 1-.717.296h-4.94a.957.957 0 0 1-.697-.296zm-.139-10.795v-9.35l-6.694 9.35zM46.373 27.078c0 7.635-4.394 14.246-10.805 17.473-.083-2.885-.169-5.522-.262-6.715-.144-1.845.448-3.351 1.909-4.515 1.425-1.132 2.161-2.92 1.874-4.71-.544-3.4-1.182-6.783-1.787-10.173-.073-.416-.322-.664-.764-.607-.352.045-.471.522-.47.799.017 1.78.1 3.562.164 5.342.044 1.296.1 2.595.13 3.892.014.706-.306 1.103-.843 1.117-.563.016-.906-.393-.933-1.117-.003-.024 0-.046-.003-.067-.062-2.357-.16-6.758-.23-9.29a.778.778 0 0 0-.338-.624l-.004-.002a.487.487 0 0 0-.555-.005.781.781 0 0 0-.332.618c-.061 2.202-.12 5.075-.18 7.237-.024.791-.034 1.583-.084 2.373-.034.527-.329.883-.884.872-.548-.01-.842-.352-.858-.895-.013-.374.005-.749.018-1.122.092-2.748.186-5.497.281-8.243.017-.42-.005-.847-.529-.907-.502-.058-.675.323-.764.741-.224 1.055-.483 2.104-.659 3.165-.4 2.407-.777 4.816-1.128 7.23-.15 1.034.065 2.045.649 2.905.415.612.958 1.146 1.504 1.652 1.11 1.034 1.778 2.268 1.691 3.79-.107 1.817-.225 5.242-.348 8.683a19.81 19.81 0 0 1-5.145.677c-1.68 0-3.31-.208-4.865-.603-.118-3.346-.234-6.644-.35-8.398-.085-1.293.448-2.359 1.298-3.279 1.115-1.202 2.222-2.413 2.664-4.038.973-3.575.539-6.99-1.368-10.168-1.198-1.999-3.359-2.825-5.354-2.132-1.603.557-2.612 1.793-3.276 3.279-1.198 2.687-1.527 5.492-.901 8.384.316 1.455 1.038 2.692 2.05 3.783.51.547 1 1.12 1.426 1.73.515.741.74 1.594.68 2.503-.087 1.351-.179 4.135-.272 7.13-6.742-3.103-11.416-9.892-11.416-17.765 0-10.81 8.813-19.574 19.686-19.574 10.874 0 19.687 8.763 19.687 19.574z" style="fill:#ee672d"/><path d="M49.15 38.685c-.62-.326-1.396-.157-1.762.459a25.923 25.923 0 0 1-1.516 2.268l-.203.26a27.26 27.26 0 0 1-2.024 2.267 25.516 25.516 0 0 1-2.237 1.967 24.898 24.898 0 0 1-5.005 2.965l-.192.084-.12.052-.248.101-.39.153a25.42 25.42 0 0 1-2.302.754 25.641 25.641 0 0 1-3.18.657l-.206.025a24.036 24.036 0 0 1-1.302.12 25.663 25.663 0 0 1-4.848-.133c-.13-.012-.259-.036-.387-.056a25.759 25.759 0 0 1-2.198-.437 25.14 25.14 0 0 1-3.591-1.174c-.003 0-.003-.001-.005-.002-.116-.05-.233-.1-.348-.152a25.176 25.176 0 0 1-3.793-2.101c-.399-.269-.783-.558-1.173-.84-.027-.02-.056-.041-.083-.064a24.584 24.584 0 0 1-.867-.714 25.18 25.18 0 0 1-3.34-3.482c-.01-.013-.127-.162-.161-.208a25.096 25.096 0 0 1-2.92-4.977l-.056-.13-.001-.003c-.73-1.836-1.296-3.709-1.607-5.662l-.058-.386v-.009l-.012-.088a25.751 25.751 0 0 1-.18-2.317 25.246 25.246 0 0 1 .163-3.776l.029-.228c.003-.026.007-.051.01-.063.01-.08.023-.161.035-.242a24.57 24.57 0 0 1 1.064-4.297 24.67 24.67 0 0 1 .556-1.46l.002-.004c.045-.1.088-.202.134-.303a25.227 25.227 0 0 1 2.924-4.916l.04-.05.057-.072a25.554 25.554 0 0 1 3.25-3.396c.177-.153.357-.304.538-.453l.255-.205.147-.117a9.294 9.294 0 0 1 .26-.198l.302-.222a25.214 25.214 0 0 1 4.703-2.68 5.83 5.83 0 0 0 .129-.057c-.013.005-.025.011-.042.02.228-.108.472-.192.708-.282a25.1 25.1 0 0 1 5.326-1.38l.15-.021.044-.005a25.82 25.82 0 0 1 6.288.001l.107.015c.537.082 1.073.17 1.605.28a25.137 25.137 0 0 1 4.027 1.199c.136.053.271.108.406.163l.004.001c-.004 0-.005-.002-.01-.003.005.002.009.003.013.006l.08.034.109.046a25.239 25.239 0 0 1 5.044 2.945l.113.085.01.01c.112.09.226.177.337.267.433.35.854.714 1.261 1.092.153.14.301.285.45.429H41.88c-.673 0-1.32.589-1.288 1.28.032.694.567 1.281 1.288 1.281h4.267c.673 0 1.32-.589 1.288-1.28-.001-.036-.01-.068-.014-.104.008-.058.014-.118.014-.178v-5.48c0-.67-.593-1.313-1.288-1.282-.698.032-1.288.564-1.288 1.281v2.27a26.858 26.858 0 0 0-9.304-5.621C31.127.64 26.287.332 21.677 1.203 17.56 1.982 13.7 3.788 10.4 6.34a26.148 26.148 0 0 0-7.54 9.315C1.016 19.504.103 23.762.262 28.028a26.383 26.383 0 0 0 3.429 12.054c2.036 3.568 4.922 6.626 8.34 8.915 3.504 2.346 7.547 3.773 11.733 4.264 4.593.539 9.263-.193 13.507-1.992 4.165-1.766 7.785-4.64 10.543-8.196a26.162 26.162 0 0 0 1.798-2.635c.344-.578.15-1.43-.462-1.753z" style="fill:#ee672d"/><path d="m36.053 5.13.083.036-.08-.034-.003-.001zM7.792 12.538l-.01.013c.06-.077.076-.096.066-.085a2.067 2.067 0 0 0-.056.071z" style="fill:#ee672d"/></g></svg>