<?xml version="1.0" encoding="utf-8"?>

<svg width="394" height="76.2" viewBox="0 0 360 65" class="css-1j8o68f" xmlns="http://www.w3.org/2000/svg" xmlns:xlink="http://www.w3.org/1999/xlink">
<defs id="SvgjsDefs2824"></defs>
<g id="SvgjsG2825" featurekey="nRdZyp-0" transform="matrix(1.2,0,0,1.2,-13.1,-23.6)" fill="rgba(0,0,0,0.87)">
<g transform="matrix(0.9,0,0,0.8,4.7,7.3)" xmlns="http://www.w3.org/2000/svg">
<path d="M 87.7 62.5 h -3.6 c -0.6 -14.5 -11.9 -26.5 -26.8 -29.2 C 59 31.7 60 29.5 60 27 c 0 -5 -4 -9 -9 -9 s -9 4 -9 9 c 0 2.5 1 4.8 2.7 6.4 c -14.9 2.7 -26.2 14.7 -26.8 29.2 h -3.6 c -1.1 0 -2 0.9 -2 2 s 0.9 2 2 2 h 73.4 c 1.1 0 2 -0.9 2 -2 S 88.8 62.5 87.7 62.5 z M 51 22 c 2.8 0 5 2.2 5 5 s -2.2 5 -5 5 s -5 -2.2 -5 -5 S 48.2 22 51 22 z M 51 36.8 c 15.6 0 28.4 11.5 29.1 25.8 H 21.9 C 22.6 48.2 35.4 36.8 51 36.8 z"></path>
<path d="M 87.7 73.4 H 14.3 c -1.1 0 -2 0.9 -2 2 s 0.9 2 2 2 h 73.4 c 1.1 0 2 -0.9 2 -2 S 88.8 73.4 87.7 73.4 z"></path></g>
</g>
<g id="SvgjsG2826" featurekey="nameLeftFeature-0" transform="matrix(2.4,0,0,2.4,107.1,5)" fill="rgba(0,0,0,0.87)"><path d="M 4 5 l 0 15 l -3.2 0 l 0 -15 l 3.2 0 z M 20.1 5 l 0 15 l -3.4 0 l -6.6 -9.8 l 0 9.8 l -3.2 0 l 0 -15 l 3.4 0 l 6.7 9.9 l 0 -9.9 l 3.2 0 z M 32.9 5 l 0 2.7 l -4.3 0 l 0 12.3 l -3.2 0 l 0 -12.3 l -4.3 0 l 0 -2.7 l 11.9 0 z"></path></g>
<g id="SvgjsG2827" featurekey="inlineSymbolFeature-0" transform="matrix(0.5,0,0,0.5,187.5,12.5)" fill="rgba(255, 255, 255, 0.82)"><path xmlns="http://www.w3.org/2000/svg" d="M 50 10 L 10 90 h 80 L 50 10 z M 50 24.9 L 72.5 70 H 42.4 l 3.3 -6.7 h 16.1 L 50 39.8 L 31.6 76.7 h 44.3 l 3.3 6.7 H 20.8 L 50 24.9 z"></path></g>
<g id="SvgjsG2828" featurekey="nameRightFeature-0" transform="matrix(2.4,0,0,2.4,229.2,5.6)" fill="rgba(0,0,0,0.87)">
<path d="M 16.1 5 l -7.5 6.3 c 2.3 2.7 5.1 6 7.3 8.7 l -4.3 0 l -5.4 -6.7 l -1.4 1.2 l 0 5.5 l -3.2 0 l 0 -15 l 3.2 0 l 0 5.7 c 2.2 -1.9 4.5 -3.8 6.7 -5.7 l 4.6 0 z M 20.4 17.3 l 7.6 0 l 0 2.7 l -10.8 0 l 0 -15 l 10.5 0 l 0 2.7 l -7.3 0 l 0 3.2 l 6 0 l 0 2.7 l -6 0 l 0 3.8 z M 36.2 17.3 l 4.7 0 l 0 2.7 l -9.7 0 l 0 -2.7 c 1.4 -0.9 7 -4.3 7 -7.7 c 0 -1 -0.6 -1.9 -1.7 -1.9 c -1.3 -0.1 -2 1 -2.3 2.2 l -3 -0.6 c 0.2 -0.8 0.7 -2.5 2.4 -3.6 c 0.9 -0.6 1.9 -0.9 3 -0.9 c 0.4 0 2.3 0.2 3.6 1.8 c 1 1.3 1 2.6 1 3 c 0 3.3 -3 5.8 -5 7.7 z M 52.7 20 l -3.2 0 l 0 -3.7 l -6.6 0 l 0 -2.1 l 6.7 -9.2 l 3.1 0 l 0 8.6 l 1.2 0 l 0 2.7 l -1.2 0 l 0 3.7 z M 47 13.6 l 2.4 0 l 0 -3.4 z"></path>
</g>
</svg>
