<?xml version="1.0" encoding="UTF-8"?>
<svg width="111px" height="24px" viewBox="0 0 111 24" version="1.1" xmlns="http://www.w3.org/2000/svg" xmlns:xlink="http://www.w3.org/1999/xlink">
    <title>Light</title>
    <g id="Light" stroke="none" stroke-width="1" fill="none" fill-rule="evenodd">
        <g id="Strich-1-wht" fill="#000000">
            <rect id="Rectangle" x="82.9959846" y="0.214540795" width="9.65508757" height="23.3865869"></rect>
            <polygon id="Path" points="95.8540111 0.214540795 100.681623 0.214540795 100.681555 23.6011961 95.8540111 23.6011961"></polygon>
            <polygon id="Path" points="103.884494 0.214540795 106.298232 0.214540795 106.298232 23.6011961 103.884425 23.6011961"></polygon>
            <path d="M5.40008543,24 C3.6222469,24 2.27786416,23.4944383 1.36680051,22.4833148 C0.455600171,21.4722597 2.66453526e-15,20.0222127 2.66453526e-15,18.1333789 L2.66453526e-15,16.8 L3.46668945,16.8 L3.46668945,18.3999317 C3.46668945,19.9110124 4.1000598,20.6666553 5.36680051,20.6666553 C5.98889364,20.6666553 6.46117044,20.483349 6.78335754,20.1166681 C7.10561299,19.7500555 7.26670654,19.1555745 7.26670654,18.3332935 C7.26670654,17.3555233 7.04451089,16.4944212 6.60005126,15.7500555 C6.15559163,15.0055532 5.3333789,14.1111662 4.13334472,13.0666211 C2.62226399,11.7333106 1.56678343,10.5277403 0.966697992,9.45004699 C0.366749252,8.372217 0.0667748825,7.15557454 0.0667748825,5.80005126 C0.0667748825,3.95557454 0.533447245,2.52774028 1.46672362,1.51668518 C2.40006835,0.505561726 3.75565997,1.95399252e-14 5.53343016,1.95399252e-14 C7.28891927,1.95399252e-14 8.61669372,0.505561726 9.51668518,1.51668518 C10.416745,2.52774028 10.8667407,3.97778727 10.8667407,5.8666211 L10.8667407,6.83331909 L7.40005126,6.83331909 L7.40005126,5.63335327 C7.40005126,4.83335327 7.24449381,4.25008116 6.9333789,3.88333191 C6.62226399,3.516651 6.16666382,3.33334472 5.56678343,3.33334472 C4.34446818,3.33334472 3.73344724,4.07771038 3.73344724,5.56664673 C3.73344724,6.41107219 3.96117898,7.2 4.41671081,7.93336181 C4.87231098,8.66665528 5.70012815,9.55550619 6.90009398,10.6000513 C8.43338744,11.9333618 9.48893635,13.1444682 10.0667407,14.233302 C10.6444767,15.3222042 10.9333789,16.6000171 10.9333789,18.066604 C10.9333789,19.9777873 10.4611704,21.4444425 9.51668518,22.4667065 C8.57226826,23.4889022 7.20013669,24 5.40008543,24 L5.40008543,24 Z M79.7932507,0.214609141 L79.7932507,23.6011277 L69.0333362,23.6011277 L69.0333362,23.6666724 L65.3666638,23.6666724 L65.3666638,23.6011277 L65.3106877,23.6011277 L65.3106877,13.1666809 L61.433302,13.1666809 L61.433302,23.6666724 L57.7666296,23.6666724 L57.7666296,0.333327638 L61.433302,0.333327638 L61.433302,9.83333618 L65.3106877,9.83333618 L65.3106877,0.214609141 L79.7932507,0.214609141 Z M15.8999402,3.66667236 L12.0666382,3.66667236 L12.0666382,0.333327638 L23.3999146,0.333327638 L23.3999146,3.66667236 L19.5666126,3.66667236 L19.5666126,23.6666724 L15.8999402,23.6666724 L15.8999402,3.66667236 Z M25.1666809,0.333327638 L30.6000513,0.333327638 C32.4888851,0.333327638 33.8666211,0.772251175 34.733396,1.6500299 C35.6000342,2.52774028 36.0332849,3.87772747 36.0332849,5.69999146 L36.0332849,7.13336181 C36.0332849,9.55550619 35.2333533,11.0889364 33.6333533,11.7333106 L33.6333533,11.8000171 C34.5222042,12.0666382 35.1499701,12.6111576 35.516651,13.4333704 C35.8832636,14.2555831 36.0667065,15.3555575 36.0667065,16.7332935 L36.0667065,20.8333533 C36.0667065,21.5000085 36.0889193,22.0388552 36.1333447,22.4500299 C36.1777702,22.8610679 36.2889022,23.2667065 36.4666724,23.6666724 L32.7333618,23.6666724 C32.6000171,23.2889193 32.5110978,22.9333789 32.4666724,22.6000513 C32.4222469,22.2667236 32.4000342,21.6666382 32.4000342,20.8 L32.4000342,16.5333106 C32.4000342,15.4666894 32.2278001,14.7221871 31.8832636,14.3000085 C31.5388637,13.8777616 30.9444511,13.6666382 30.1000256,13.6666382 L28.8332849,13.6666382 L28.8332849,23.6666724 L25.1666809,23.6666724 L25.1666809,0.333327638 Z M30.1666638,10.3333618 C30.9000256,10.3333618 31.4500128,10.1444511 31.8166254,9.76669799 C32.1833063,9.38887655 32.3666126,8.75564289 32.3666126,7.86665528 L32.3666126,6.06660402 C32.3666126,5.22217856 32.2165912,4.61115762 31.9166852,4.23326783 C31.6167108,3.85558308 31.144434,3.66667236 30.4999915,3.66667236 L28.8332849,3.66667236 L28.8332849,10.3333618 L30.1666638,10.3333618 L30.1666638,10.3333618 Z M38.5999829,0.333327638 L42.2666553,0.333327638 L42.2666553,23.6666724 L38.5999829,23.6666724 L38.5999829,0.333327638 Z M50.1665955,24 C48.4111064,24 47.0722597,23.4999744 46.1499872,22.5 C45.227783,21.5 44.7666467,20.0889193 44.7666467,18.2667236 L44.7666467,5.73327638 C44.7666467,3.91108073 45.227783,2.5 46.1499872,1.5 C47.0722597,0.50002563 48.4111064,0 50.1665955,0 C51.9222213,0 53.2611363,0.50002563 54.1832721,1.5 C55.1055446,2.5 55.5666809,3.91108073 55.5666809,5.73327638 L55.5666809,8.19998291 L52.0999915,8.19998291 L52.0999915,5.5 C52.0999915,4.05549765 51.4888338,3.33334472 50.2666467,3.33334472 C49.04434,3.33334472 48.4333191,4.05549765 48.4333191,5.5 L48.4333191,18.5332764 C48.4333191,19.9555745 49.04434,20.6666553 50.2666467,20.6666553 C51.4888338,20.6666553 52.0999915,19.9555745 52.0999915,18.5332764 L52.0999915,14.9666638 L55.5666809,14.9666638 L55.5666809,18.2667236 C55.5666809,20.0889193 55.1055446,21.5 54.1832721,22.5 C53.2611363,23.4999744 51.9222213,24 50.1665955,24 L50.1665955,24 Z" id="Shape"></path>
            <polygon id="Path" points="109.501102 0.214540795 110.708039 0.214540795 110.708039 23.6011961 109.501102 23.6011961"></polygon>
        </g>
    </g>
</svg>